<svg xmlns="http://www.w3.org/2000/svg" viewBox="0 0 266 80"><path d="M133 5.7h3c3 .3 5.3 1 8 2.3-.8 3.4-.8 3.4-2 7-3 1-4 1-7 .5-3.8-.8-3.8-.8-6 .5 0 2.4 0 2.4 1 5 2.4 2 2.4 2 5.3 3.8 5 3.4 8.4 6.2 9.7 12.2.3 4.8-.3 8-3 12l-2 2 11 1-2-4c-.2-2.4-.2-2.4-.2-5v-5.8l.1-3 .1-7.2h-3v-7h3v-7l9-2v9h6v7h-6v18h6v7h5l-2-3c-1.5-5.8-1.1-11.9-1-17.9V20h9l1 24 5-1 1-23h9v32l7-1-1.4-1.7c-3.7-5.4-3-12-2.6-18.3a22 22 0 0 1 5.1-10.5c4.2-2.2 7.3-1.8 11.9-1.5V7h8l1 45h4V20h9v32l9-1-2-2.2c-4-5.6-3.5-12.1-3-18.8.9-3.8 2.5-6.4 5-9.4a20 20 0 0 1 13-1.6c3.7 1.3 4.7 2.5 6.8 5.8a31 31 0 0 1-.2 21.5C260 49 260 49 258 51l5 1v2H2V7h9v37h16v8l4-1-1-2.1a24 24 0 0 1-1.2-9v-7.2L29 29l.1-9h9l1 24h4c1.2-2.5 1.2-4.3 1.3-7l.1-3 .2-3.1v-3.2L45 20h8l1 32 7-1-1.4-1.8C55.5 43.5 56.5 35.7 57 29a16 16 0 0 1 7-10c2.6-.2 2.6-.2 5.6-.2h2.9C75 19 75 19 77 20l-1 8h-8c-1.4 2.7-1.1 5-1.1 8v3.3c0 2.7 0 2.7 1.1 4.7h8l2 7h3l-2-3c-.7-4.4-.5-8 1.6-12 4-3.4 8.1-4 13.4-4l-2-5-10 1-1-7a25 25 0 0 1 10.5-2.4l2.8-.2c3.8.8 5.2 2.6 7.7 5.6.7 3.1.7 3.1.7 6.6L103 52l15-1 3-8 2 .5c4 .7 8 .6 12 .5.2-3 .2-4.3-1-7a71 71 0 0 0-8.3-6.1c-3.4-2.4-5.3-4.2-6.3-8.3-.6-5.4-.7-9 2.6-13.6 3.8-2.7 6.4-3.4 11-3.3M247.4 27c-2 2.8-1.8 5-1.8 8.3V39c.4 3.3 1.1 4.7 3.4 7.1 2.7-1.2 2.7-1.2 5-3l.3-6.9v-3.8c0-3.2 0-3.2-1.7-5.2-2.2-1.5-3-1.5-5.2 0M205 27c-2.3 3.5-2.3 5-2.2 9v3.2c0 3 0 3 2.2 5.8 3.3-.4 3.3-.4 6-2l.1-9.6c.3-3.5.3-3.5-1.1-6.4-2.5-.3-2.5-.3-5 0M88.2 39.3c-1.5 1.7-1.5 1.7-.9 3.9L88 45h5c1.4-1.1 1.4-1.1 1-4v-3c-3.8-.4-3.8-.4-5.8 1.3M46 49l-2 3h3zm137 0-2 3 4-1zm-89 1-1 2 3-1zm118 0-1 2h2zm-93 9h4l3 8 3-8h3l3 9 3-9h3a85 85 0 0 1-5 18h-2l-4-10-4 10h-2l-3.2-10.1c-1.8-5.7-1.8-5.7-1.8-7.9m41 1c2 2.4 2 4.2 2.3 7.4-.3 4-.6 5.7-3.3 8.6-2.7 1-5 1.4-8 1-3-1.9-3-1.9-5-5q-.9-4.5 0-9c4-5.6 7.9-5.3 14-3m-10 3c-1.2 3.7-1.3 5.3.4 8.9L152 74c3.3-.4 3.3-.4 6-2 .6-5.3.6-5.3-1.4-10-3-1.8-3.6-1-6.6 1m-67-4 4.9-.1 2.7-.1C93 59 93 59 95 61c.3 3 .3 3 0 6l-2 2 4 7c-3.7-.3-4.8-.8-7.3-3.6L88 70l-1 6h-4zm5 2c-1.3 1-1.3 1-1 3.6V67l5-2-1-3zm81-2 4.3-.2h2.4c2.3.2 2.3.2 4.1 1.6 1.2 1.6 1.2 1.6 1 4.1L179 70l3 4v2c-2.3-.2-2.3-.2-5-1-1.7-2.5-1.7-2.5-3-5l-2-1v7h-3zm4 2c-1.3 1-1.3 1-1 3.6V67l5-1v-4zm16-2h3l1 6 5-6 4 1-5 6a30 30 0 0 0 6 10c-2.2.4-2.2.4-5 0q-2.8-2.7-5-6l-1 6h-3zM68 59c1.9.3 1.9.3 4 1a71 71 0 0 1 4 10.4l2 5.6h-4l-1-4h-7l-1 4h-3q2.8-8.6 6-17m1 6-1 4h3zm31-6h15v3h-6v14h-3V62h-6z" fill="#fff"/><path d="M226 6c6.6.6 6.6.6 8 2l-1 7c-2.8.6-2.8.6-6 1l-3-2c-.3-3-.3-3 0-6z" fill="#fff"/></svg>