<svg xmlns="http://www.w3.org/2000/svg" viewBox="0 0 76 94"><path d="M2 62h3c1.6 2.2 1.6 2.2 3.2 5l1.6 2.8L11 72l1.2-2.2 1.6-2.8 1.6-2.8L17 62h3v20h-3l-1-11-4 7h-2l-4-6-1 10H2zm10-34h44v4H12zm0 13h44v4H12l-1-2zm0-26h44l1 2-1 2H12zm27 47h3c2 2.4 2 2.4 4.2 5.5l2.2 3L50 73l1-11h3v21a16 16 0 0 1-7.7-7.1l-2-2.8L43 71l-1 11h-3zm19 0h3l1 17h5c2-2 1.4-6.2 1.6-9v-2.4L69 62h3l.4 11.3c0 6.2 0 6.2-2.2 8.8-3.8 1.5-6.2.8-10.2-.1-2-3-2.2-3.6-2.2-7v-4.7L58 68zm-34 0h12v3h-9v5h8v3h-8v6h9v3H24z" fill="#fff"/></svg>