<svg xmlns="http://www.w3.org/2000/svg" viewBox="0 0 48 48"><path d="M28 3c3 2.2 3 2.2 5 5 .3 2.8.3 2.8 0 5l2.9-.1C39 13 39 13 41 15l.9 5.3.4 3.2.4 3.3.4 3.3c1.1 9.2 1.1 9.2-.1 13.9-2 2-6.1 1.2-8.9 1.2H11.7c-5.5 0-5.5 0-7.7-2.2l.2-5 .2-3 .3-3.2.3-3.2C6.2 15.8 6.2 15.8 9 13h6l.3-3.3C16 6 16 6 17.6 4q5-2.2 10.4-1m-5 3-5 5v2h12c-1.4-5-1.4-5-4.6-6.3zM11 17c-1.2 2.5-1.3 4.5-1.5 7.2L9.2 27 9 30.6 8 42h31c1-3 1-4.3.7-7.3q0-1.3-.3-2.6l-.3-2.6q0-1.3-.3-2.6-.3-5.1-1.8-9.9h-4v6h-3v-6H18v6h-3v-6z" fill="#fff"/></svg>